<?xml version="1.0" encoding="UTF-8"?>
<svg width="33px" height="31px" viewBox="0 0 33 31" version="1.1" xmlns="http://www.w3.org/2000/svg" xmlns:xlink="http://www.w3.org/1999/xlink">
    <!-- Generator: Sketch 39.1 (31720) - http://www.bohemiancoding.com/sketch -->
    <title>Combined Shape Copy</title>
    <desc>Created with Sketch.</desc>
    <defs></defs>
    <g id="Desktop" stroke="none" stroke-width="1" fill="none" fill-rule="evenodd">
        <g id="Login:-Email" transform="translate(-1003.000000, -26.000000)" stroke="#2D2D2D" stroke-width="1.3">
            <g id="Header" transform="translate(0.000000, -1.000000)">
                <g id="Header-Icons" transform="translate(836.000000, 0.000000)">
                    <g id="Message-" transform="translate(147.000000, 1.000000)">
                        <path d="M34.2444002,50.3043478 L30.7737025,55 L27.3030049,50.3043478 L22.6561865,50.3043478 C21.7722894,50.3043478 21.0557491,49.5888706 21.0557491,48.7090499 L21.0557491,28.4213849 C21.0557491,27.5403262 21.7711336,26.826087 22.6561865,26.826087 L50.2288309,26.826087 C51.1127281,26.826087 51.8292683,27.5415642 51.8292683,28.4213849 L51.8292683,48.7090499 C51.8292683,49.5901086 51.1138838,50.3043478 50.2288309,50.3043478 L34.2444002,50.3043478 Z M28.3442142,40.9130435 C29.6859836,40.9130435 30.7737025,39.8618859 30.7737025,38.5652174 C30.7737025,37.2685488 29.6859836,36.2173913 28.3442142,36.2173913 C27.0024448,36.2173913 25.9147258,37.2685488 25.9147258,38.5652174 C25.9147258,39.8618859 27.0024448,40.9130435 28.3442142,40.9130435 Z M44.5408032,40.9130435 C45.8825726,40.9130435 46.9702916,39.8618859 46.9702916,38.5652174 C46.9702916,37.2685488 45.8825726,36.2173913 44.5408032,36.2173913 C43.1990339,36.2173913 42.1113149,37.2685488 42.1113149,38.5652174 C42.1113149,39.8618859 43.1990339,40.9130435 44.5408032,40.9130435 Z M36.4425087,40.9130435 C37.7842781,40.9130435 38.8719971,39.8618859 38.8719971,38.5652174 C38.8719971,37.2685488 37.7842781,36.2173913 36.4425087,36.2173913 C35.1007393,36.2173913 34.0130204,37.2685488 34.0130204,38.5652174 C34.0130204,39.8618859 35.1007393,40.9130435 36.4425087,40.9130435 Z" id="Combined-Shape-Copy"></path>
                    </g>
                </g>
            </g>
        </g>
    </g>
</svg>