<?xml version="1.0" encoding="UTF-8" standalone="no"?>
<svg width="15px" height="14px" viewBox="0 0 15 14" version="1.1" xmlns="http://www.w3.org/2000/svg" xmlns:xlink="http://www.w3.org/1999/xlink">
    <!-- Generator: Sketch 39 (31667) - http://www.bohemiancoding.com/sketch -->
    <title>Combined Shape</title>
    <desc>Created with Sketch.</desc>
    <defs></defs>
    <g id="iPhone-SE-Layouts" stroke="none" stroke-width="1" fill="none" fill-rule="evenodd">
        <g id="Onboarding-Search-Copy-2" transform="translate(-27.000000, -409.000000)" fill="#E2B644">
            <path d="M33.4285714,420.666667 L31.7368421,423 L30.0451128,420.666667 L28.6052628,420.666667 C27.7187006,420.666667 27,419.954427 27,419.068929 L27,410.597738 C27,409.715332 27.7234812,409 28.6052628,409 L40.3947372,409 C41.2812994,409 42,409.71224 42,410.597738 L42,419.068929 C42,419.951335 41.2765188,420.666667 40.3947372,420.666667 L33.4285714,420.666667 Z M30.5526316,416 C31.206653,416 31.7368421,415.477666 31.7368421,414.833333 C31.7368421,414.189001 31.206653,413.666667 30.5526316,413.666667 C29.8986102,413.666667 29.3684211,414.189001 29.3684211,414.833333 C29.3684211,415.477666 29.8986102,416 30.5526316,416 Z M38.4473684,416 C39.1013898,416 39.6315789,415.477666 39.6315789,414.833333 C39.6315789,414.189001 39.1013898,413.666667 38.4473684,413.666667 C37.793347,413.666667 37.2631579,414.189001 37.2631579,414.833333 C37.2631579,415.477666 37.793347,416 38.4473684,416 Z M34.5,416 C35.1540214,416 35.6842105,415.477666 35.6842105,414.833333 C35.6842105,414.189001 35.1540214,413.666667 34.5,413.666667 C33.8459786,413.666667 33.3157895,414.189001 33.3157895,414.833333 C33.3157895,415.477666 33.8459786,416 34.5,416 Z" id="Combined-Shape"></path>
        </g>
    </g>
</svg>