<?xml version="1.0" standalone="no"?>
<!DOCTYPE svg PUBLIC "-//W3C//DTD SVG 1.1//EN" "http://www.w3.org/Graphics/SVG/1.1/DTD/svg11.dtd">
<svg width="100%" height="100%" viewBox="0 0 19 26" version="1.1" xmlns="http://www.w3.org/2000/svg" xmlns:xlink="http://www.w3.org/1999/xlink" xml:space="preserve" style="fill-rule:evenodd;clip-rule:evenodd;stroke-linejoin:round;stroke-miterlimit:1.41421;">
    <g transform="matrix(1,0,0,1,-3.95,-0)">
        <path d="M17.85,7L19.85,7C20.45,7 20.85,6.6 20.85,6C20.85,5.9 20.85,5.9 20.85,5.8C20.25,2.5 17.45,0 13.95,0C10.05,0 6.95,3.1 6.95,7C6.95,7.6 7.05,8.6 7.25,9.3C7.35,9.7 7.45,10 7.55,10.4C7.65,10.7 7.35,11 7.05,11L4.95,11C4.35,11 3.95,11.4 3.95,12L3.95,14C3.95,14.6 4.35,15 4.95,15L8.25,15C8.45,15 8.75,15.2 8.75,15.4C8.85,16.1 8.95,16.6 8.95,17C8.95,19.1 6.55,21 4.15,22.6C4.05,22.7 3.95,22.9 3.95,23C3.95,23.1 3.95,23.2 4.05,23.3L5.75,25.8C5.85,25.9 6.05,26 6.15,26C6.25,26 6.35,26 6.45,25.9C7.65,25.1 9.25,25 12.05,25C13.75,25 14.75,25.3 15.65,25.6C16.35,25.8 17.15,26 18.05,26C19.85,26 20.85,25.4 21.55,25.1L21.75,25C21.95,24.9 22.05,24.7 22.05,24.6C22.05,24.5 22.05,24.4 21.95,24.4L20.55,21.7C20.45,21.5 20.15,21.4 19.85,21.5L19.55,21.7C19.05,22 18.75,22.1 17.95,22.1C17.65,22.1 17.25,22 16.65,21.8C15.65,21.5 14.45,21.2 12.55,21.1C12.15,21.1 11.95,20.8 12.15,20.4C12.65,19.4 12.95,18.3 12.95,17.1C12.95,16.7 12.95,16.2 12.85,15.7C12.85,15.4 13.05,15.1 13.35,15.1L18.95,15.1C19.55,15.1 19.95,14.7 19.95,14.1L19.95,12.1C19.95,11.5 19.55,11.1 18.95,11.1L12.25,11.1C12.05,11.1 11.85,10.9 11.75,10.7C11.55,9.8 11.25,8.9 11.05,8.2C10.95,8 10.95,7.4 10.95,7.1C10.95,5.4 12.25,4.1 13.95,4.1C15.35,4.1 16.45,5 16.85,6.3C16.95,6.6 17.35,7 17.85,7L17.85,7Z" style="fill:rgb(220,220,220);fill-rule:nonzero;"/>
    </g>
</svg>
