<?xml version="1.0" encoding="UTF-8"?>
<svg width="316px" height="316px" viewBox="0 0 316 316" version="1.1" xmlns="http://www.w3.org/2000/svg" xmlns:xlink="http://www.w3.org/1999/xlink">
    <!-- Generator: Sketch 39.1 (31720) - http://www.bohemiancoding.com/sketch -->
    <title>Group</title>
    <desc>Created with Sketch.</desc>
    <defs></defs>
    <g id="Page-1" stroke="none" stroke-width="1" fill="none" fill-rule="evenodd">
        <g id="Group">
            <circle id="Oval" fill="#D70000" cx="158" cy="158" r="158"></circle>
            <g id="cross" transform="translate(80.000000, 80.000000)" fill="#FFFFFF">
                <g id="Close">
                    <path d="M97.1513052,78.4933662 L153.122911,22.5217606 C158.275164,17.369507 158.275164,9.01607512 153.122911,3.86455869 C147.970657,-1.28769484 139.617962,-1.28769484 134.465709,3.86455869 L78.4933662,59.8369014 L22.5210235,3.8638216 C17.36877,-1.28843192 9.01607512,-1.28843192 3.8638216,3.8638216 C-1.28769484,9.01607512 -1.28769484,17.369507 3.8638216,22.5210235 L59.8361643,78.4926291 L3.8638216,134.464972 C-1.28769484,139.617225 -1.28769484,147.970657 3.8638216,153.122174 C9.01607512,158.274427 17.36877,158.274427 22.5210235,153.122174 L78.4933662,97.149831 L134.465709,153.122174 C139.617225,158.274427 147.970657,158.274427 153.122911,153.122174 C158.275164,147.96992 158.275164,139.617225 153.122911,134.464972 L97.1513052,78.4933662 L97.1513052,78.4933662 Z" id="Shape"></path>
                </g>
            </g>
        </g>
    </g>
</svg>