<?xml version="1.0" encoding="UTF-8" standalone="no"?>
<svg width="20px" height="20px" viewBox="0 0 20 20" version="1.1" xmlns="http://www.w3.org/2000/svg" xmlns:xlink="http://www.w3.org/1999/xlink">
    <!-- Generator: Sketch 39 (31667) - http://www.bohemiancoding.com/sketch -->
    <title>Group 2</title>
    <desc>Created with Sketch.</desc>
    <defs></defs>
    <g id="iPhone-SE-Layouts" stroke="none" stroke-width="1" fill="none" fill-rule="evenodd">
        <g id="Onboarding-Search-Copy-2" transform="translate(-241.000000, -278.000000)">
            <g id="Group-2" transform="translate(241.000000, 278.000000)">
                <path d="M13.5,13.5 L17.5,17.5" id="Line" stroke="#2D2D2D" stroke-width="3" stroke-linecap="square"></path>
                <path d="M7.5,15 C11.6421356,15 15,11.6421356 15,7.5 C15,3.35786438 11.6421356,0 7.5,0 C3.35786438,0 0,3.35786438 0,7.5 C0,11.6421356 3.35786438,15 7.5,15 Z M7.5,13 C10.5375661,13 13,10.5375661 13,7.5 C13,4.46243388 10.5375661,2 7.5,2 C4.46243388,2 2,4.46243388 2,7.5 C2,10.5375661 4.46243388,13 7.5,13 Z" id="Combined-Shape" fill="#2D2D2D"></path>
            </g>
        </g>
    </g>
</svg>