<?xml version="1.0" encoding="UTF-8"?>
<svg width="23px" height="45px" viewBox="0 0 23 45" version="1.1" xmlns="http://www.w3.org/2000/svg" xmlns:xlink="http://www.w3.org/1999/xlink">
    <!-- Generator: Sketch 39.1 (31720) - http://www.bohemiancoding.com/sketch -->
    <title>Sell Icon</title>
    <desc>Created with Sketch.</desc>
    <defs></defs>
    <g id="Desktop" stroke="none" stroke-width="1" fill="none" fill-rule="evenodd">
        <g id="Login:-Email" transform="translate(-934.000000, -14.000000)" fill="#2D2D2D">
            <g id="Header" transform="translate(0.000000, -1.000000)">
                <g id="Header-Icons" transform="translate(836.000000, 0.000000)">
                    <g id="Sell" transform="translate(73.000000, 1.000000)">
                        <g id="Sell-Icon" transform="translate(25.000000, 14.000000)">
                            <path d="M22.745895,13.5865024 L22.745895,13.5865024 L18.6529481,10.2518971 C18.878248,9.63613193 19.0284478,8.99194682 19.0847728,8.31934177 L19.0847728,8.30039515 C19.3382351,4.49212433 16.7378996,1.01541938 13.0392275,0.210187989 C11.2086664,-0.216110983 9.27484285,0.0112484689 7.61325663,0.844899792 C5.93289543,1.68802443 4.63742143,3.109021 3.95213445,4.83316351 C3.81132206,5.19314931 3.98029693,5.60997497 4.34640915,5.75207463 C4.70313388,5.89417429 5.11618356,5.7236547 5.25699595,5.35419559 C6.39288257,2.48378251 9.6034051,0.863846413 12.7200527,1.59329132 L12.7294402,1.59329132 C15.7428254,2.24694975 17.8643987,5.08894289 17.6672614,8.19618873 C17.6297114,8.57512115 17.563999,8.93510695 17.470124,9.29509275 L11.9033408,4.75737703 C11.640491,4.5489642 11.2743788,4.5489642 11.0209165,4.75737703 L0.262849797,13.5770291 C0.0938749276,13.7096554 -1.77635684e-15,13.9180683 -1.77635684e-15,14.1264811 L-1.77635684e-15,44.2895017 C-1.77635684e-15,44.6779074 0.319174754,45 0.704061957,45 L22.2952953,45 C22.6801825,45 22.9993573,44.6779074 22.9993573,44.2895017 L22.9993573,14.1454277 C23.0087448,13.9275416 22.9148698,13.7286021 22.745895,13.5865024 L22.745895,13.5865024 Z M21.6100083,43.5790034 L21.6006209,43.5790034 L1.41751141,43.5790034 L1.41751141,14.4769936 L11.4715162,6.22574015 L16.916262,10.6592495 C16.4187248,11.559214 15.7052754,12.3170788 14.8416261,12.8854774 C14.6632637,12.5823315 14.4473514,12.2981322 14.1845016,12.0518261 C13.4241147,11.2939613 12.4290404,10.8960822 11.3870287,10.9055555 C10.3731795,10.9245022 9.42504274,11.3318545 8.73975576,12.0707727 C8.02630631,12.8286376 7.63203162,13.8612284 7.66958159,14.8938193 C7.69774407,15.8979902 8.11079375,16.8358479 8.83363069,17.5179263 C9.52830516,18.2473712 10.4576669,18.6547235 11.4715162,18.6736701 L11.5278411,18.6736701 C12.5604653,18.6736701 13.5273771,18.2663178 14.2783765,17.5179263 C14.287764,17.5084529 14.287764,17.5084529 14.2971515,17.4989796 C15.0106009,16.7411148 15.4048756,15.708524 15.3673257,14.6759331 C15.3673257,14.5338335 15.3485507,14.3917338 15.3297757,14.2496341 C16.4374998,13.5865024 17.3762491,12.658118 18.0333736,11.5497406 L21.6100083,14.458047 L21.6100083,43.5790034 L21.6100083,43.5790034 Z M11.7625284,15.3674848 L11.8094659,15.3674848 C12.5510778,15.3201182 13.2739148,15.1685453 13.9498142,14.9222392 C13.9216518,15.5190577 13.677577,16.0969297 13.2739148,16.532702 C12.7857651,17.0158408 12.1474156,17.2716202 11.4902911,17.2621469 C10.8519416,17.2526736 10.2699171,16.9968942 9.83809242,16.532702 C9.82870492,16.5232287 9.81931743,16.5137553 9.80992994,16.504282 C9.35933029,16.0779831 9.09648049,15.5001111 9.0777055,14.8653993 C9.05893052,14.2022676 9.31239282,13.5486092 9.76299248,13.0654703 C10.1948171,12.6107514 10.7768417,12.354972 11.4151912,12.3360254 L11.4527412,12.3360254 C12.1098657,12.3360254 12.7294402,12.6012781 13.2082023,13.0749436 C13.2175898,13.0844169 13.2175898,13.0844169 13.2269773,13.0938903 C13.3677897,13.2265166 13.4898271,13.3780896 13.5930895,13.5391359 C13.0016775,13.7664953 12.382103,13.8991217 11.7249785,13.9464882 C11.3307038,13.9749081 11.0396915,14.306474 11.0584665,14.704353 C11.0772415,15.0832855 11.3870287,15.3674848 11.7625284,15.3674848 L11.7625284,15.3674848 Z" id="Shape"></path>
                            <path d="M14.28875,26.5384615 L15.43875,26.5384615 C15.78375,26.5384615 16.01375,26.3076923 16.01375,25.9615385 L16.01375,25.8461538 C15.66875,23.9423077 14.05875,22.5 12.04625,22.5 C9.80375,22.5 8.02125,24.2884615 8.02125,26.5384615 C8.02125,26.8846154 8.07875,27.4615385 8.19375,27.8653846 C8.25125,28.0961538 8.30875,28.2692308 8.36625,28.5 C8.42375,28.6730769 8.25125,28.8461538 8.07875,28.8461538 L6.87125,28.8461538 C6.52625,28.8461538 6.29625,29.0769231 6.29625,29.4230769 L6.29625,30.5769231 C6.29625,30.9230769 6.52625,31.1538462 6.87125,31.1538462 L8.76875,31.1538462 C8.88375,31.1538462 9.05625,31.2692308 9.05625,31.3846154 C9.11375,31.7884615 9.17125,32.0769231 9.17125,32.3076923 C9.17125,33.5192308 7.79125,34.6153846 6.41125,35.5384615 C6.35375,35.5961538 6.29625,35.7115385 6.29625,35.7692308 C6.29625,35.8269231 6.29625,35.8846154 6.35375,35.9423077 L7.33125,37.3846154 C7.38875,37.4423077 7.50375,37.5 7.56125,37.5 C7.61875,37.5 7.67625,37.5 7.73375,37.4423077 C8.42375,36.9807692 9.34375,36.9230769 10.95375,36.9230769 C11.93125,36.9230769 12.50625,37.0961538 13.02375,37.2692308 C13.42625,37.3846154 13.88625,37.5 14.40375,37.5 C15.43875,37.5 16.01375,37.1538462 16.41625,36.9807692 L16.53125,36.9230769 C16.64625,36.8653846 16.70375,36.75 16.70375,36.6923077 C16.70375,36.6346154 16.70375,36.5769231 16.64625,36.5769231 L15.84125,35.0192308 C15.78375,34.9038462 15.61125,34.8461538 15.43875,34.9038462 L15.26625,35.0192308 C14.97875,35.1923077 14.80625,35.25 14.34625,35.25 C14.17375,35.25 13.94375,35.1923077 13.59875,35.0769231 C13.02375,34.9038462 12.33375,34.7307692 11.24125,34.6730769 C11.01125,34.6730769 10.89625,34.5 11.01125,34.2692308 C11.29875,33.6923077 11.47125,33.0576923 11.47125,32.3653846 C11.47125,32.1346154 11.47125,31.8461538 11.41375,31.5576923 C11.41375,31.3846154 11.52875,31.2115385 11.70125,31.2115385 L14.92125,31.2115385 C15.26625,31.2115385 15.49625,30.9807692 15.49625,30.6346154 L15.49625,29.4807692 C15.49625,29.1346154 15.26625,28.9038462 14.92125,28.9038462 L11.06875,28.9038462 C10.95375,28.9038462 10.83875,28.7884615 10.78125,28.6730769 C10.66625,28.1538462 10.49375,27.6346154 10.37875,27.2307692 C10.32125,27.1153846 10.32125,26.7692308 10.32125,26.5961538 C10.32125,25.6153846 11.06875,24.8653846 12.04625,24.8653846 C12.85125,24.8653846 13.48375,25.3846154 13.71375,26.1346154 C13.77125,26.3076923 14.00125,26.5384615 14.28875,26.5384615 L14.28875,26.5384615 L14.28875,26.5384615 Z" id="Shape"></path>
                        </g>
                    </g>
                </g>
            </g>
        </g>
    </g>
</svg>