<?xml version="1.0" encoding="UTF-8" standalone="no"?>
<svg width="12px" height="24px" viewBox="0 0 12 24" version="1.1" xmlns="http://www.w3.org/2000/svg" xmlns:xlink="http://www.w3.org/1999/xlink">
    <!-- Generator: Sketch 39 (31667) - http://www.bohemiancoding.com/sketch -->
    <title>Group 3</title>
    <desc>Created with Sketch.</desc>
    <defs></defs>
    <g id="iPhone-SE-Layouts" stroke="none" stroke-width="1" fill="none" fill-rule="evenodd">
        <g id="Onboarding-Search-Copy-2" transform="translate(-28.000000, -362.000000)">
            <g id="Group-3" transform="translate(28.000000, 362.000000)">
                <path d="M11.8674235,7.24613462 L11.8674235,7.24613462 L9.73197293,5.46767846 C9.84952067,5.13927036 9.92788583,4.79570497 9.95727276,4.43698228 L9.95727276,4.42687741 C10.089514,2.39579964 8.73281718,0.541557003 6.80307519,0.112100261 C5.84799984,-0.115259191 4.83904844,0.00599918342 3.9721339,0.450613223 C3.0954237,0.900279694 2.41952422,1.65814453 2.06198319,2.57768721 C1.98851586,2.76967963 2.07667666,2.99198665 2.26769173,3.06777313 C2.45380898,3.14355962 2.66931316,3.05261584 2.74278049,2.85557098 C3.33541699,1.324684 5.01047223,0.460718087 6.63654923,0.849755371 L6.64144706,0.849755371 C8.21364802,1.1983732 9.32055586,2.71410288 9.21770159,4.37130066 C9.1981103,4.57339795 9.16382555,4.76539038 9.11484732,4.9573828 L6.21043869,2.53726775 C6.07329967,2.42611424 5.8822846,2.42611424 5.75004339,2.53726775 L0.137139025,7.24108218 C0.0489782231,7.31181624 7.10542736e-16,7.42296975 7.10542736e-16,7.53412326 L7.10542736e-16,23.6210676 C7.10542736e-16,23.8282173 0.166525959,24 0.367336673,24 L11.632328,24 C11.8331387,24 11.9996647,23.8282173 11.9996647,23.6210676 L11.9996647,7.54422812 C12.0045625,7.42802218 11.9555843,7.3219211 11.8674235,7.24613462 L11.8674235,7.24613462 Z M11.274787,23.2421352 L11.2698891,23.2421352 L0.739571169,23.2421352 L0.739571169,7.72106325 L5.98513887,3.32039475 L8.82587581,5.68493305 C8.56629122,6.16491411 8.19405673,6.56910869 7.74345708,6.87225463 C7.65039845,6.7105768 7.53774854,6.55900383 7.40060951,6.42764059 C7.00388591,6.02344601 6.48471674,5.81124385 5.94105846,5.81629629 C5.41209365,5.82640115 4.9174136,6.04365574 4.55987257,6.43774545 C4.18763808,6.84194004 3.98192954,7.39265515 4.00152083,7.94337027 C4.0162143,8.47892809 4.23171848,8.97911888 4.6088508,9.34289401 C4.97128965,9.73193129 5.45617406,9.94918588 5.98513887,9.95929074 L6.0145258,9.95929074 C6.55328625,9.95929074 7.05776195,9.74203615 7.44958774,9.34289401 C7.45448556,9.33784157 7.45448556,9.33784157 7.45938338,9.33278914 C7.83161788,8.92859456 8.03732641,8.37787944 8.01773512,7.82716433 C8.01773512,7.75137784 8.00793948,7.67559136 7.99814384,7.59980487 C8.57608687,7.24613462 9.0658691,6.75099625 9.40871666,6.15986168 L11.274787,7.71095838 L11.274787,23.2421352 L11.274787,23.2421352 Z M6.13697136,8.19599188 L6.16146047,8.19599188 C6.54838843,8.17072972 6.92552075,8.0898908 7.27816396,7.95852757 C7.26347049,8.2768308 7.13612711,8.58502917 6.92552075,8.81744105 C6.67083399,9.0751151 6.33778207,9.21153077 5.99493451,9.20647833 C5.66188259,9.2014259 5.35821761,9.06501023 5.13291778,8.81744105 C5.12801996,8.81238862 5.12312214,8.80733619 5.11822432,8.80228375 C4.88312885,8.5749243 4.74598982,8.26672593 4.73619418,7.92821297 C4.72639853,7.57454271 4.85863973,7.22592489 5.0937352,6.96825084 C5.31903503,6.72573409 5.62270001,6.58931842 5.95575193,6.57921356 L5.97534322,6.57921356 C6.31819078,6.57921356 6.64144706,6.72068166 6.89123599,6.97330327 C6.89613382,6.97835571 6.89613382,6.97835571 6.90103164,6.98340814 C6.97449897,7.05414219 7.03817066,7.13498111 7.09204671,7.22087245 C6.7834839,7.34213083 6.46022763,7.41286488 6.11738007,7.43812704 C5.91167153,7.45328434 5.75983904,7.63011947 5.76963468,7.84232162 C5.77943033,8.04441891 5.94105846,8.19599188 6.13697136,8.19599188 L6.13697136,8.19599188 Z" id="Shape" fill="#FAFAFA"></path>
                <path d="M7.455,14.1538462 L8.055,14.1538462 C8.235,14.1538462 8.355,14.0307692 8.355,13.8461538 L8.355,13.7846154 C8.175,12.7692308 7.335,12 6.285,12 C5.115,12 4.185,12.9538462 4.185,14.1538462 C4.185,14.3384615 4.215,14.6461538 4.275,14.8615385 C4.305,14.9846154 4.335,15.0769231 4.365,15.2 C4.395,15.2923077 4.305,15.3846154 4.215,15.3846154 L3.585,15.3846154 C3.405,15.3846154 3.285,15.5076923 3.285,15.6923077 L3.285,16.3076923 C3.285,16.4923077 3.405,16.6153846 3.585,16.6153846 L4.575,16.6153846 C4.635,16.6153846 4.725,16.6769231 4.725,16.7384615 C4.755,16.9538462 4.785,17.1076923 4.785,17.2307692 C4.785,17.8769231 4.065,18.4615385 3.345,18.9538462 C3.315,18.9846154 3.285,19.0461538 3.285,19.0769231 C3.285,19.1076923 3.285,19.1384615 3.315,19.1692308 L3.825,19.9384615 C3.855,19.9692308 3.915,20 3.945,20 C3.975,20 4.005,20 4.035,19.9692308 C4.395,19.7230769 4.875,19.6923077 5.715,19.6923077 C6.225,19.6923077 6.525,19.7846154 6.795,19.8769231 C7.005,19.9384615 7.245,20 7.515,20 C8.055,20 8.355,19.8153846 8.565,19.7230769 L8.625,19.6923077 C8.685,19.6615385 8.715,19.6 8.715,19.5692308 C8.715,19.5384615 8.715,19.5076923 8.685,19.5076923 L8.265,18.6769231 C8.235,18.6153846 8.145,18.5846154 8.055,18.6153846 L7.965,18.6769231 C7.815,18.7692308 7.725,18.8 7.485,18.8 C7.395,18.8 7.275,18.7692308 7.095,18.7076923 C6.795,18.6153846 6.435,18.5230769 5.865,18.4923077 C5.745,18.4923077 5.685,18.4 5.745,18.2769231 C5.895,17.9692308 5.985,17.6307692 5.985,17.2615385 C5.985,17.1384615 5.985,16.9846154 5.955,16.8307692 C5.955,16.7384615 6.015,16.6461538 6.105,16.6461538 L7.785,16.6461538 C7.965,16.6461538 8.085,16.5230769 8.085,16.3384615 L8.085,15.7230769 C8.085,15.5384615 7.965,15.4153846 7.785,15.4153846 L5.775,15.4153846 C5.715,15.4153846 5.655,15.3538462 5.625,15.2923077 C5.565,15.0153846 5.475,14.7384615 5.415,14.5230769 C5.385,14.4615385 5.385,14.2769231 5.385,14.1846154 C5.385,13.6615385 5.775,13.2615385 6.285,13.2615385 C6.705,13.2615385 7.035,13.5384615 7.155,13.9384615 C7.185,14.0307692 7.305,14.1538462 7.455,14.1538462 L7.455,14.1538462 L7.455,14.1538462 Z" id="Shape" fill="#E2B644"></path>
            </g>
        </g>
    </g>
</svg>