<?xml version="1.0" encoding="UTF-8"?>
<svg width="710px" height="328px" viewBox="0 0 710 328" version="1.1" xmlns="http://www.w3.org/2000/svg" xmlns:xlink="http://www.w3.org/1999/xlink">
    <!-- Generator: Sketch 39.1 (31720) - http://www.bohemiancoding.com/sketch -->
    <title>Logo Outlines White</title>
    <desc>Created with Sketch.</desc>
    <defs></defs>
    <g id="Style-Guide" stroke="none" stroke-width="1" fill="none" fill-rule="evenodd">
        <g id="Logo-Outlines-White">
            <path d="M153.408,43.648 C148.287974,43.648 144.352014,42.2080144 141.6,39.328 C138.847986,36.4479856 137.472,32.9600205 137.472,28.864 C137.472,27.8399949 137.631998,26.624007 137.952,25.216 C138.272002,23.807993 138.687997,22.5920051 139.2,21.568 C140.864008,22.3360038 143.327984,22.8799984 146.592,23.2 C149.856016,23.5200016 153.663978,23.68 158.016,23.68 C164.544033,23.68 171.935959,23.3920029 180.192,22.816 C188.448041,22.2399971 196.351962,21.6320032 203.904,20.992 C211.456038,20.3519968 218.111971,19.7440029 223.872,19.168 C229.632029,18.5919971 233.343992,18.304 235.008,18.304 C239.744024,18.304 243.167989,20.0639824 245.28,23.584 C247.392011,27.1040176 248.959995,31.8079706 249.984,37.696 C246.655983,37.4399987 243.360016,37.216001 240.096,37.024 C236.831984,36.831999 234.048012,36.736 231.744,36.736 C227.64798,36.736 223.520021,36.8639987 219.36,37.12 C215.199979,37.3760013 211.008021,37.7599974 206.784,38.272 C204.991991,41.9840186 203.008011,46.3679747 200.832,51.424 C198.655989,56.4800253 196.512011,61.7599725 194.4,67.264 C192.287989,72.7680275 190.27201,78.2399728 188.352,83.68 C186.43199,89.1200272 184.768007,94.0159782 183.36,98.368 C180.543986,106.816042 178.080011,114.623964 175.968,121.792 C173.855989,128.960036 172.000008,135.647969 170.4,141.856 C168.799992,148.064031 167.424006,153.983972 166.272,159.616 C165.119994,165.248028 164.096004,170.751973 163.2,176.128 C154.623957,174.847994 147.456029,169.472047 141.696,160 C142.720005,156.03198 143.967993,151.712023 145.44,147.04 C146.912007,142.367977 148.63999,137.05603 150.624,131.104 C152.60801,125.15197 154.943987,118.400038 157.632,110.848 C160.320013,103.295962 163.391983,94.720048 166.848,85.12 C168.128006,81.5359821 169.471993,77.7920195 170.88,73.888 C172.288007,69.9839805 173.663993,66.1120192 175.008,62.272 C176.352007,58.4319808 177.567995,54.7200179 178.656,51.136 C179.744005,47.5519821 180.671996,44.2880147 181.44,41.344 C176.063973,41.9840032 170.976024,42.5279978 166.176,42.976 C161.375976,43.4240022 157.120019,43.648 153.408,43.648 L153.408,43.648 Z M204.096,156.16 C204.736003,152.447981 205.855992,147.55203 207.456,141.472 C209.056008,135.39197 210.943989,128.928034 213.12,122.08 C215.296011,115.231966 217.599988,108.352035 220.032,101.44 C222.464012,94.5279654 224.831988,88.3200275 227.136,82.816 C228.800008,78.8479802 230.271994,75.7440112 231.552,73.504 C232.832006,71.2639888 234.239992,69.3760077 235.776,67.84 C237.568009,68.0960013 239.42399,68.5439968 241.344,69.184 C243.26401,69.8240032 245.119991,70.5919955 246.912,71.488 C248.704009,72.3840045 250.303993,73.3119952 251.712,74.272 C253.120007,75.2320048 254.207996,76.1599955 254.976,77.056 C251.519983,81.1520205 248.480013,85.8239738 245.856,91.072 C243.231987,96.3200262 240.576013,103.039959 237.888,111.232 C244.800035,105.087969 250.911973,99.2000282 256.224,93.568 C261.536027,87.9359718 266.495977,81.6640346 271.104,74.752 C271.872004,74.1119968 273.21599,73.792 275.136,73.792 C276.928009,73.792 278.655992,74.0799971 280.32,74.656 C281.984008,75.2320029 283.135997,76.0319949 283.776,77.056 C281.471988,83.2000307 280.32,89.2799699 280.32,95.296 C280.32,100.928028 281.151992,105.151986 282.816,107.968 C282.687999,108.736004 281.824008,110.207989 280.224,112.384 C278.623992,114.560011 276.86401,116.60799 274.944,118.528 C271.487983,116.735991 268.416013,114.272016 265.728,111.136 C263.039987,107.999984 261.056006,104.576019 259.776,100.864 C253.75997,105.088021 248.640021,109.21598 244.416,113.248 C240.191979,117.28002 236.576015,121.759975 233.568,126.688 C230.559985,131.616025 228.000011,137.279968 225.888,143.68 C223.775989,150.080032 221.76001,157.695956 219.84,166.528 C218.687994,166.399999 217.312008,165.984004 215.712,165.28 C214.111992,164.575996 212.512008,163.712005 210.912,162.688 C209.311992,161.663995 207.872006,160.576006 206.592,159.424 C205.311994,158.271994 204.480002,157.184005 204.096,156.16 L204.096,156.16 Z M352.32,82.432 C353.600006,82.432 355.103991,82.6559978 356.832,83.104 C358.560009,83.5520022 360.127993,84.1279965 361.536,84.832 C362.944007,85.5360035 364.127995,86.2719962 365.088,87.04 C366.048005,87.8080038 366.528,88.5119968 366.528,89.152 C363.967987,94.5280269 361.600011,99.9359728 359.424,105.376 C357.247989,110.816027 355.392008,116.031975 353.856,121.024 C352.319992,126.016025 351.136004,130.687978 350.304,135.04 C349.471996,139.392022 349.056,143.167984 349.056,146.368 C349.056,149.952018 349.439996,152.927988 350.208,155.296 C350.976004,157.664012 352.255991,159.359995 354.048,160.384 C352.511992,161.408005 350.528012,162.239997 348.096,162.88 C345.663988,163.520003 343.48801,163.84 341.568,163.84 C334.655965,163.84 331.2,159.104047 331.2,149.632 C331.2,142.335964 333.631976,132.352063 338.496,119.68 C335.935987,125.568029 332.992017,131.103974 329.664,136.288 C326.335983,141.472026 322.944017,146.04798 319.488,150.016 C316.031983,153.98402 312.544018,157.215988 309.024,159.712 C305.503982,162.208012 302.272015,163.711997 299.328,164.224 C294.591976,163.967999 290.752015,161.696021 287.808,157.408 C284.863985,153.119979 283.392,147.648033 283.392,140.992 C283.392,133.823964 284.927985,126.27204 288,118.336 C291.072015,110.39996 295.007976,103.040034 299.808,96.256 C304.608024,89.4719661 309.823972,83.8080227 315.456,79.264 C321.088028,74.7199773 326.527974,72.3200013 331.776,72.064 C333.056006,72.4480019 334.495992,73.2159942 336.096,74.368 C337.696008,75.5200058 339.231993,76.8639923 340.704,78.4 C342.176007,79.9360077 343.423995,81.503992 344.448,83.104 C345.472005,84.704008 346.047999,86.0799942 346.176,87.232 C341.055974,88.0000038 335.776027,90.4959789 330.336,94.72 C324.895973,98.9440211 319.968022,104.03197 315.552,109.984 C311.135978,115.93603 307.520014,122.303966 304.704,129.088 C301.887986,135.872034 300.48,142.207971 300.48,148.096 C300.48,150.528012 301.375991,152.063997 303.168,152.704 C306.880019,151.935996 311.167976,148.768028 316.032,143.2 C320.896024,137.631972 326.783965,129.024058 333.696,117.376 C334.976006,115.071988 336.415992,112.512014 338.016,109.696 C339.616008,106.879986 341.247992,103.936015 342.912,100.864 C344.576008,97.7919846 346.207992,94.6880157 347.808,91.552 C349.408008,88.4159843 350.911993,85.3760147 352.32,82.432 L352.32,82.432 Z M417.408,70.336 C419.968013,70.336 422.911983,71.1039923 426.24,72.64 C429.568017,74.1760077 432.511987,76.1599878 435.072,78.592 C434.431997,73.4719744 433.632005,68.6400227 432.672,64.096 C431.711995,59.5519773 430.304009,54.8480243 428.448,49.984 C426.591991,45.1199757 424.128015,39.8080288 421.056,34.048 C417.983985,28.2879712 414.144023,21.6960371 409.536,14.272 C409.920002,13.1199942 410.783993,11.7760077 412.128,10.24 C413.472007,8.70399232 415.007991,7.26400672 416.736,5.92 C418.464009,4.57599328 420.255991,3.39200512 422.112,2.368 C423.968009,1.34399488 425.727992,0.70400128 427.392,0.448 C430.976018,4.41601984 434.367984,9.37597024 437.568,15.328 C440.768016,21.2800298 443.583988,27.6799658 446.016,34.528 C448.448012,41.3760342 450.335993,48.4479635 451.68,55.744 C453.024007,63.0400365 453.696,70.0159667 453.696,76.672 C453.696,83.3280333 452.960007,90.1759648 451.488,97.216 C450.015993,104.256035 447.968013,111.135966 445.344,117.856 C442.719987,124.576034 439.680017,130.94397 436.224,136.96 C432.767983,142.97603 429.02402,148.351976 424.992,153.088 C420.95998,157.824024 416.768022,161.695985 412.416,164.704 C408.063978,167.712015 403.712022,169.599996 399.36,170.368 C390.527956,169.343995 383.776023,166.496023 379.104,161.824 C374.431977,157.151977 372.096,150.720041 372.096,142.528 C372.096,138.175978 372.767993,133.440026 374.112,128.32 C375.456007,123.199974 377.247989,118.112025 379.488,113.056 C381.728011,107.999975 384.351985,103.072024 387.36,98.272 C390.368015,93.471976 393.567983,89.1520192 396.96,85.312 C400.352017,81.4719808 403.775983,78.2080134 407.232,75.52 C410.688017,72.8319866 414.079983,71.1040038 417.408,70.336 L417.408,70.336 Z M397.824,162.688 C402.304022,161.151992 406.783978,157.760026 411.264,152.512 C415.744022,147.263974 419.775982,141.088036 423.36,133.984 C426.944018,126.879964 429.855989,119.264041 432.096,111.136 C434.336011,103.007959 435.456,95.1680378 435.456,87.616 L435.456,83.584 C435.456,83.0719974 435.392001,82.5600026 435.264,82.048 C432.191985,83.3280064 428.928017,85.5039846 425.472,88.576 C422.015983,91.6480154 418.560017,95.1999798 415.104,99.232 C411.647983,103.26402 408.384015,107.647976 405.312,112.384 C402.239985,117.120024 399.488012,121.855976 397.056,126.592 C394.623988,131.328024 392.704007,135.871978 391.296,140.224 C389.887993,144.576022 389.184,148.415983 389.184,151.744 C389.184,158.144032 392.063971,161.791996 397.824,162.688 L397.824,162.688 Z M527.424,80.512 C526.911997,88.4480397 525.504012,95.2639715 523.2,100.96 C520.895988,106.656028 517.600021,111.647979 513.312,115.936 C509.023979,120.224021 503.808031,124.095983 497.664,127.552 C491.519969,131.008017 484.352041,134.335984 476.16,137.536 C476.16,138.304004 476.128,139.103996 476.064,139.936 C476,140.768004 475.968,141.631996 475.968,142.528 C475.968,144.192008 476.095999,145.919991 476.352,147.712 C476.608001,149.504009 477.055997,151.167992 477.696,152.704 C478.336003,154.240008 479.231994,155.487995 480.384,156.448 C481.536006,157.408005 483.007991,157.888 484.8,157.888 C488.256017,157.888 491.647983,157.120008 494.976,155.584 C498.304017,154.047992 501.471985,152.160011 504.48,149.92 C507.488015,147.679989 510.303987,145.248013 512.928,142.624 C515.552013,139.999987 517.88799,137.600011 519.936,135.424 C521.216006,136.576006 522.303996,137.663995 523.2,138.688 C517.439971,146.368038 511.136034,152.735975 504.288,157.792 C497.439966,162.848025 490.944031,166.079993 484.8,167.488 C475.967956,166.463995 469.088025,163.232027 464.16,157.792 C459.231975,152.351973 456.768,145.792038 456.768,138.112 C456.768,132.863974 457.503993,127.520027 458.976,122.08 C460.448007,116.639973 462.495987,111.392025 465.12,106.336 C467.744013,101.279975 470.815982,96.5120224 474.336,92.032 C477.856018,87.5519776 481.63198,83.6480166 485.664,80.32 C489.69602,76.9919834 493.855979,74.3680096 498.144,72.448 C502.432021,70.5279904 506.687979,69.568 510.912,69.568 C516.800029,70.3360038 522.303974,73.9839674 527.424,80.512 L527.424,80.512 Z M514.176,86.848 C510.719983,87.3600026 507.136019,88.7679885 503.424,91.072 C499.711981,93.3760115 496.224016,96.4479808 492.96,100.288 C489.695984,104.128019 486.720013,108.607974 484.032,113.728 C481.343987,118.848026 479.232008,124.351971 477.696,130.24 C487.936051,125.119974 496.447966,118.816037 503.232,111.328 C510.016034,103.839963 513.663997,95.6800442 514.176,86.848 L514.176,86.848 Z" id="Trade" fill="#FFFFFF"></path>
            <path d="M0.264,275.368 C0.264,266.407955 1.31998944,257.608043 3.432,248.968 C5.54401056,240.327957 8.5199808,232.136039 12.36,224.392 C16.2000192,216.647961 20.7759734,209.544032 26.088,203.08 C31.4000266,196.615968 37.2239683,191.016024 43.56,186.28 C49.8960317,181.543976 56.6479642,177.864013 63.816,175.24 C70.9840358,172.615987 78.3439622,171.304 85.896,171.304 C94.7280442,171.304 101.607975,173.159981 106.536,176.872 C111.464025,180.584019 113.928,185.767967 113.928,192.424 C113.928,194.984013 113.576004,197.607987 112.872,200.296 C112.167996,202.984013 111.144007,205.639987 109.8,208.264 C108.455993,210.888013 106.888009,213.415988 105.096,215.848 C103.303991,218.280012 101.320011,220.391991 99.144,222.184 C95.8159834,221.671997 92.9360122,220.168012 90.504,217.672 C88.0719878,215.175988 86.5360032,212.264017 85.896,208.936 C90.3760224,205.223981 93.9279869,201.35202 96.552,197.32 C99.1760131,193.28798 100.488,189.608017 100.488,186.28 C100.488,180.647972 96.9680352,177.832 89.928,177.832 C86.9839853,177.832 83.9440157,178.439994 80.808,179.656 C77.6719843,180.872006 74.504016,182.567989 71.304,184.744 C68.103984,186.920011 65.000015,189.543985 61.992,192.616 C58.983985,195.688015 56.2000128,199.079981 53.64,202.792 C35.847911,228.392128 26.952,254.567866 26.952,281.32 C26.952,290.792047 28.4239853,298.407971 31.368,304.168 C34.3120147,309.928029 38.2159757,313.319995 43.08,314.344 C48.5840275,313.063994 55.5599578,309.544029 64.008,303.784 C72.4560422,298.023971 81.6719501,290.536046 91.656,281.32 C92.9360064,282.600006 93.7039987,283.943993 93.96,285.352 C90.2479814,290.216024 86.4080198,294.887978 82.44,299.368 C78.4719802,303.848022 74.5360195,307.943981 70.632,311.656 C66.7279805,315.368019 62.8880189,318.631986 59.112,321.448 C55.3359811,324.264014 51.848016,326.439992 48.648,327.976 C32.7759206,327.719999 20.744041,323.176044 12.552,314.344 C4.35995904,305.511956 0.264,292.520086 0.264,275.368 L0.264,275.368 Z M129.288,319.72 C121.991964,318.951996 116.168022,315.752028 111.816,310.12 C107.463978,304.487972 105.288,297.320044 105.288,288.616 C105.288,283.495974 106.055992,278.184028 107.592,272.68 C109.128008,267.175972 111.303986,261.832026 114.12,256.648 C116.936014,251.463974 120.263981,246.568023 124.104,241.96 C127.944019,237.351977 132.103978,233.384017 136.584,230.056 C143.624035,224.807974 150.215969,222.184 156.36,222.184 C160.45602,224.360011 164.48798,228.903965 168.456,235.816 C169.096003,235.816 169.671997,235.784 170.184,235.72 C170.696003,235.656 171.271997,235.624 171.912,235.624 C178.696034,235.624 182.088,241.63994 182.088,253.672 C182.088,261.73604 180.776013,269.383964 178.152,276.616 C175.527987,283.848036 171.880023,290.407971 167.208,296.296 C162.535977,302.184029 156.968032,307.14398 150.504,311.176 C144.039968,315.20802 136.968038,318.055992 129.288,319.72 L129.288,319.72 Z M139.08,259.24 C136.903989,262.184015 134.85601,265.383983 132.936,268.84 C131.01599,272.296017 129.352007,275.783982 127.944,279.304 C126.535993,282.824018 125.448004,286.215984 124.68,289.48 C123.911996,292.744016 123.528,295.655987 123.528,298.216 C123.528,301.288015 124.039995,304.231986 125.064,307.048 C126.088005,309.864014 127.239994,311.463998 128.52,311.848 C134.280029,310.567994 139.559976,308.168018 144.36,304.648 C149.160024,301.127982 153.319982,296.744026 156.84,291.496 C160.360018,286.247974 163.11199,280.296033 165.096,273.64 C167.08001,266.983967 168.072,259.880038 168.072,252.328 C168.072,248.999983 167.880002,246.37601 167.496,244.456 C167.111998,242.53599 166.472004,240.872007 165.576,239.464 C159.943972,241.128008 154.920022,243.815981 150.504,247.528 C146.087978,251.240019 142.280016,255.14398 139.08,259.24 L139.08,259.24 Z M186.696,309.16 C187.336003,305.447981 188.455992,300.55203 190.056,294.472 C191.656008,288.39197 193.543989,281.928034 195.72,275.08 C197.896011,268.231966 200.199988,261.352035 202.632,254.44 C205.064012,247.527965 207.431988,241.320028 209.736,235.816 C211.400008,231.84798 212.871994,228.744011 214.152,226.504 C215.432006,224.263989 216.839992,222.376008 218.376,220.84 C220.168009,221.096001 222.02399,221.543997 223.944,222.184 C225.86401,222.824003 227.719991,223.591996 229.512,224.488 C231.304009,225.384004 232.903993,226.311995 234.312,227.272 C235.720007,228.232005 236.807996,229.159996 237.576,230.056 C234.119983,234.15202 231.080013,238.823974 228.456,244.072 C225.831987,249.320026 223.176013,256.039959 220.488,264.232 C227.400035,258.087969 233.511973,252.200028 238.824,246.568 C244.136027,240.935972 249.095977,234.664035 253.704,227.752 C254.472004,227.111997 255.81599,226.792 257.736,226.792 C259.528009,226.792 261.255992,227.079997 262.92,227.656 C264.584008,228.232003 265.735997,229.031995 266.376,230.056 C264.071988,236.200031 262.92,242.27997 262.92,248.296 C262.92,253.928028 263.751992,258.151986 265.416,260.968 C265.287999,261.736004 264.424008,263.207989 262.824,265.384 C261.223992,267.560011 259.46401,269.60799 257.544,271.528 C254.087983,269.735991 251.016013,267.272016 248.328,264.136 C245.639987,260.999984 243.656006,257.576019 242.376,253.864 C236.35997,258.088021 231.240021,262.21598 227.016,266.248 C222.791979,270.28002 219.176015,274.759975 216.168,279.688 C213.159985,284.616025 210.600011,290.279968 208.488,296.68 C206.375989,303.080032 204.36001,310.695956 202.44,319.528 C201.287994,319.399999 199.912008,318.984004 198.312,318.28 C196.711992,317.575996 195.112008,316.712005 193.512,315.688 C191.911992,314.663995 190.472006,313.576006 189.192,312.424 C187.911994,311.271994 187.080002,310.184005 186.696,309.16 L186.696,309.16 Z M299.784,219.88 C303.112017,220.904005 306.247985,223.175982 309.192,226.696 C312.136015,230.216018 314.311993,234.087979 315.72,238.312 C314.311993,241.768017 312.136015,245.927976 309.192,250.792 C306.247985,255.656024 303.304015,260.615975 300.36,265.672 C297.415985,270.728025 294.760012,275.527977 292.392,280.072 C290.023988,284.616023 288.648002,288.359985 288.264,291.304 C290.31201,289.127989 292.583988,286.600014 295.08,283.72 C297.576012,280.839986 300.007988,277.960014 302.376,275.08 C304.744012,272.199986 306.95199,269.576012 309,267.208 C311.04801,264.839988 312.647994,263.080006 313.8,261.928 C316.232012,259.367987 319.111983,256.392017 322.44,253 C325.768017,249.607983 329.255982,246.408015 332.904,243.4 C336.552018,240.391985 340.231981,237.832011 343.944,235.72 C347.656019,233.607989 351.047985,232.552 354.12,232.552 C357.448017,232.552 360.231989,233.671989 362.472,235.912 C364.712011,238.152011 366.471994,240.487988 367.752,242.92 C367.752,243.176001 367.272005,243.527998 366.312,243.976 C365.351995,244.424002 363.976009,245.67199 362.184,247.72 C360.391991,250.024012 358.376011,253.19198 356.136,257.224 C353.895989,261.25602 351.720011,265.607977 349.608,270.28 C347.495989,274.952023 345.736007,279.719976 344.328,284.584 C342.919993,289.448024 342.216,293.86398 342.216,297.832 C342.216,301.032016 342.631996,303.079996 343.464,303.976 C344.296004,304.872004 345.479992,305.32 347.016,305.32 C348.424007,305.32 349.895992,305.000003 351.432,304.36 C352.968008,303.719997 354.183996,303.4 355.08,303.4 C355.592003,303.656001 356.007998,304.199996 356.328,305.032 C356.648002,305.864004 356.808,306.599997 356.808,307.24 C355.783995,308.136004 354.568007,309.031996 353.16,309.928 C351.751993,310.824004 350.280008,311.655996 348.744,312.424 C347.207992,313.192004 345.704007,313.831997 344.232,314.344 C342.759993,314.856003 341.448006,315.112 340.296,315.112 C336.583981,315.112 333.544012,314.568005 331.176,313.48 C328.807988,312.391995 326.952007,310.952009 325.608,309.16 C324.263993,307.367991 323.336003,305.224012 322.824,302.728 C322.311997,300.231988 322.056,297.576014 322.056,294.76 C322.056,293.223992 322.183999,291.49601 322.44,289.576 C322.696001,287.65599 323.207996,285.384013 323.976,282.76 C324.744004,280.135987 325.831993,277.000018 327.24,273.352 C328.648007,269.703982 330.439989,265.320026 332.616,260.2 C332.359999,260.2 330.632016,261.095991 327.432,262.888 C324.231984,264.680009 320.776019,267.431981 317.064,271.144 C311.04797,276.904029 305.640024,282.599972 300.84,288.232 C296.039976,293.864028 291.144025,300.135965 286.152,307.048 C283.335986,311.01602 280.872011,314.375986 278.76,317.128 C276.647989,319.880014 274.824008,321.703996 273.288,322.6 C270.599987,321.063992 268.616006,318.920014 267.336,316.168 C266.055994,313.415986 265.096003,310.568015 264.456,307.624 C264.456,305.191988 264.807996,302.120019 265.512,298.408 C266.216004,294.695981 267.175994,290.568023 268.392,286.024 C269.608006,281.479977 271.111991,276.712025 272.904,271.72 C274.696009,266.727975 276.679989,261.736025 278.856,256.744 C283.720024,245.479944 288.16798,236.648032 292.2,230.248 C296.23202,223.847968 298.759995,220.392003 299.784,219.88 L299.784,219.88 Z M374.088,305.128 C374.088,302.567987 374.375997,298.984023 374.952,294.376 C375.528003,289.767977 376.295995,284.776027 377.256,279.4 C378.216005,274.023973 379.303994,268.520028 380.52,262.888 C381.736006,257.255972 382.983994,252.200022 384.264,247.72 C385.928008,241.70397 388.519982,237.064016 392.04,233.8 C395.560018,230.535984 399.943974,228.904 405.192,228.904 C408.008014,228.904 410.791986,229.351996 413.544,230.248 C416.296014,231.144004 417.927997,232.295993 418.44,233.704 C414.727981,236.776015 411.752011,240.583977 409.512,245.128 C407.271989,249.672023 405.480007,254.535974 404.136,259.72 C402.791993,264.904026 401.768004,270.215973 401.064,275.656 C400.359996,281.096027 399.624004,286.183976 398.856,290.92 C403.080021,285.287972 407.079981,280.200023 410.856,275.656 C414.632019,271.111977 417.991985,267.496013 420.936,264.808 C424.90402,261.095981 427.591993,257.992012 429,255.496 C430.408007,252.999988 431.623995,250.280015 432.648,247.336 C433.416004,245.031988 434.343995,242.344015 435.432,239.272 C436.520005,236.199985 438.343987,233.384013 440.904,230.824 C441.416003,230.695999 442.503992,230.632 444.168,230.632 C445.448006,230.632 446.823993,230.695999 448.296,230.824 C449.768007,230.952001 451.143994,231.207998 452.424,231.592 C453.704006,231.976002 454.791996,232.423997 455.688,232.936 C456.584004,233.448003 457.095999,234.087996 457.224,234.856 C455.17599,237.544013 453.256009,241.735972 451.464,247.432 C449.671991,253.128028 448.072007,259.367966 446.664,266.152 C445.255993,272.936034 443.976006,279.687966 442.824,286.408 C441.671994,293.128034 440.648004,298.791977 439.752,303.4 C440.264003,303.143999 441.415991,302.120009 443.208,300.328 C445.000009,298.535991 447.015989,296.296013 449.256,293.608 C451.496011,290.919987 453.863988,287.976016 456.36,284.776 C458.856012,281.575984 461.06399,278.440015 462.984,275.368 C465.416012,271.655981 467.431992,268.168016 469.032,264.904 C470.632008,261.639984 472.039994,258.152019 473.256,254.44 C474.472006,250.727981 475.591995,246.600023 476.616,242.056 C477.640005,237.511977 478.727994,232.104031 479.88,225.832 C480.648004,224.807995 482.343987,223.944004 484.968,223.24 C487.592013,222.535996 489.991989,222.184 492.168,222.184 C494.08801,222.184 495.495996,222.503997 496.392,223.144 C495.751997,230.312036 494.568009,236.711972 492.84,242.344 C491.111991,247.976028 488.776015,253.447973 485.832,258.76 C482.887985,264.072027 479.240022,269.383973 474.888,274.696 C470.535978,280.008027 465.416029,285.799969 459.528,292.072 C457.095988,294.632013 454.440014,297.447985 451.56,300.52 C448.679986,303.592015 445.864014,306.439987 443.112,309.064 C440.359986,311.688013 437.800012,313.895991 435.432,315.688 C433.063988,317.480009 431.240006,318.376 429.96,318.376 C427.015985,318.376 424.58401,317.224012 422.664,314.92 C420.74399,312.615988 419.784,309.672018 419.784,306.088 C419.784,302.375981 419.943998,299.144014 420.264,296.392 C420.584002,293.639986 421.127996,290.728015 421.896,287.656 C422.664004,284.839986 423.271998,282.47201 423.72,280.552 C424.168002,278.63199 424.551998,276.968007 424.872,275.56 C425.192002,274.151993 425.415999,272.936005 425.544,271.912 C425.672001,270.887995 425.799999,269.864005 425.928,268.84 C424.903995,269.352003 423.560008,270.407992 421.896,272.008 C420.231992,273.608008 418.504009,275.463989 416.712,277.576 C414.919991,279.688011 413.128009,281.831989 411.336,284.008 C409.543991,286.184011 408.072006,288.039992 406.92,289.576 C404.487988,292.904017 402.376009,295.847987 400.584,298.408 C398.791991,300.968013 397.096008,303.399988 395.496,305.704 C393.895992,308.008012 392.328008,310.343988 390.792,312.712 C389.255992,315.080012 387.46401,317.607987 385.416,320.296 C381.31998,319.015994 378.408009,317.096013 376.68,314.536 C374.951991,311.975987 374.088,308.840019 374.088,305.128 L374.088,305.128 Z M560.52,235.432 C561.800006,235.432 563.303991,235.655998 565.032,236.104 C566.760009,236.552002 568.327993,237.127996 569.736,237.832 C571.144007,238.536004 572.327995,239.271996 573.288,240.04 C574.248005,240.808004 574.728,241.511997 574.728,242.152 C572.167987,247.528027 569.800011,252.935973 567.624,258.376 C565.447989,263.816027 563.592008,269.031975 562.056,274.024 C560.519992,279.016025 559.336004,283.687978 558.504,288.04 C557.671996,292.392022 557.256,296.167984 557.256,299.368 C557.256,302.952018 557.639996,305.927988 558.408,308.296 C559.176004,310.664012 560.455991,312.359995 562.248,313.384 C560.711992,314.408005 558.728012,315.239997 556.296,315.88 C553.863988,316.520003 551.68801,316.84 549.768,316.84 C542.855965,316.84 539.4,312.104047 539.4,302.632 C539.4,295.335964 541.831976,285.352063 546.696,272.68 C544.135987,278.568029 541.192017,284.103974 537.864,289.288 C534.535983,294.472026 531.144017,299.04798 527.688,303.016 C524.231983,306.98402 520.744018,310.215988 517.224,312.712 C513.703982,315.208012 510.472015,316.711997 507.528,317.224 C502.791976,316.967999 498.952015,314.696021 496.008,310.408 C493.063985,306.119979 491.592,300.648033 491.592,293.992 C491.592,286.823964 493.127985,279.27204 496.2,271.336 C499.272015,263.39996 503.207976,256.040034 508.008,249.256 C512.808024,242.471966 518.023972,236.808023 523.656,232.264 C529.288028,227.719977 534.727974,225.320001 539.976,225.064 C541.256006,225.448002 542.695992,226.215994 544.296,227.368 C545.896008,228.520006 547.431993,229.863992 548.904,231.4 C550.376007,232.936008 551.623995,234.503992 552.648,236.104 C553.672005,237.704008 554.247999,239.079994 554.376,240.232 C549.255974,241.000004 543.976027,243.495979 538.536,247.72 C533.095973,251.944021 528.168022,257.03197 523.752,262.984 C519.335978,268.93603 515.720014,275.303966 512.904,282.088 C510.087986,288.872034 508.68,295.207971 508.68,301.096 C508.68,303.528012 509.575991,305.063997 511.368,305.704 C515.080019,304.935996 519.367976,301.768028 524.232,296.2 C529.096024,290.631972 534.983965,282.024058 541.896,270.376 C543.176006,268.071988 544.615992,265.512014 546.216,262.696 C547.816008,259.879986 549.447992,256.936015 551.112,253.864 C552.776008,250.791985 554.407992,247.688016 556.008,244.552 C557.608008,241.415984 559.111993,238.376015 560.52,235.432 L560.52,235.432 Z M584.328,300.712 C584.328,295.079972 585.671987,287.176051 588.36,277 C591.048013,266.823949 594.823976,254.952068 599.688,241.384 C607.62404,219.751892 615.079965,201.736072 622.056,187.336 C629.032035,172.935928 635.847967,161.70404 642.504,153.64 C644.040008,153.896001 645.927989,154.535995 648.168,155.56 C650.408011,156.584005 652.615989,157.703994 654.792,158.92 C656.968011,160.136006 658.919991,161.383994 660.648,162.664 C662.376009,163.944006 663.495997,164.967996 664.008,165.736 C654.02395,177.512059 645.256038,190.183932 637.704,203.752 C630.151962,217.320068 623.240031,232.871912 616.968,250.408 C611.591973,265.512076 607.496014,279.11194 604.68,291.208 C601.863986,303.30406 600.456,313.38396 600.456,321.448 L600.456,325.48 C600.456,325.992003 600.519999,326.503997 600.648,327.016 C598.855991,326.759999 597.320006,326.312003 596.04,325.672 C594.759994,325.031997 593.928002,324.264004 593.544,323.368 C593.287999,322.727997 592.584006,321.800006 591.432,320.584 C590.279994,319.367994 589.256004,318.440003 588.36,317.8 C587.207994,317.031996 586.248004,315.016016 585.48,311.752 C584.711996,308.487984 584.328,304.80802 584.328,300.712 L584.328,300.712 Z M629.64,300.712 C629.64,295.079972 630.983987,287.176051 633.672,277 C636.360013,266.823949 640.135976,254.952068 645,241.384 C652.93604,219.751892 660.391965,201.736072 667.368,187.336 C674.344035,172.935928 681.159967,161.70404 687.816,153.64 C689.352008,153.896001 691.239989,154.535995 693.48,155.56 C695.720011,156.584005 697.927989,157.703994 700.104,158.92 C702.280011,160.136006 704.231991,161.383994 705.96,162.664 C707.688009,163.944006 708.807997,164.967996 709.32,165.736 C699.33595,177.512059 690.568038,190.183932 683.016,203.752 C675.463962,217.320068 668.552031,232.871912 662.28,250.408 C656.903973,265.512076 652.808014,279.11194 649.992,291.208 C647.175986,303.30406 645.768,313.38396 645.768,321.448 L645.768,325.48 C645.768,325.992003 645.831999,326.503997 645.96,327.016 C644.167991,326.759999 642.632006,326.312003 641.352,325.672 C640.071994,325.031997 639.240002,324.264004 638.856,323.368 C638.599999,322.727997 637.896006,321.800006 636.744,320.584 C635.591994,319.367994 634.568004,318.440003 633.672,317.8 C632.519994,317.031996 631.560004,315.016016 630.792,311.752 C630.023996,308.487984 629.64,304.80802 629.64,300.712 L629.64,300.712 Z" id="Cornwall" fill="#FFFFFF"></path>
            <path d="M342.635742,210 L348.972656,180.017578 L357.114258,180.017578 L350.777344,210 L342.635742,210 Z M371.400911,210 L363.382357,210 L368.242708,186.641602 L361.741732,186.641602 L363.156771,180.017578 L384.238802,180.017578 L382.782747,186.641602 L376.261263,186.641602 L371.400911,210 Z" id="IT" fill="#FAFAFA"></path>
            <polygon id="Right" fill="#FAFAFA" points="463.5 195.75 465.375 195.75 465.375 192 463.5 192 406.5 192 404.625 192 404.625 195.75 406.5 195.75"></polygon>
            <polygon id="Left" fill="#FAFAFA" points="319.5 195.75 321.375 195.75 321.375 192 319.5 192 262.5 192 260.625 192 260.625 195.75 262.5 195.75"></polygon>
        </g>
    </g>
</svg>